<svg width="253" height="250" viewBox="0 0 253 250" fill="none" xmlns="http://www.w3.org/2000/svg">
<path fill-rule="evenodd" clip-rule="evenodd" d="M48.5508 49H3.44922C3.25 48.0204 2.48047 47.2488 1.5 47.05V2.45001C2.64062 2.21838 3.5 1.20953 3.5 0H2H1.5H1H0.5V250H1.5H50.5H51.5H100.5H101.5H150.5H151.5H200.5H201.5H249.5H251.301H251.5H252.5V247C251.193 247 250.082 247.835 249.67 249H203.449C203.25 248.02 202.48 247.249 201.5 247.05V201.95C201.578 201.934 201.654 201.915 201.729 201.892C201.889 201.843 202.043 201.779 202.188 201.7C202.309 201.634 202.426 201.558 202.535 201.474C202.627 201.402 202.713 201.325 202.793 201.242C202.994 201.035 203.158 200.794 203.277 200.528C203.354 200.361 203.412 200.184 203.449 200H249.551C249.783 201.141 250.791 202 252 202V199.5V197C250.791 197 249.783 197.859 249.551 199H203.449C203.25 198.02 202.48 197.249 201.5 197.05V151.95C202.48 151.751 203.25 150.98 203.449 150H249.551C249.783 151.141 250.791 152 252 152V149.5V147C250.791 147 249.783 147.859 249.551 149H203.449C203.25 148.02 202.48 147.249 201.5 147.05V101.95C201.91 101.867 202.283 101.684 202.594 101.427C202.697 101.341 202.795 101.247 202.883 101.146C202.943 101.076 203 101.004 203.053 100.928L203.145 100.788C203.287 100.548 203.393 100.283 203.449 100H249.551C249.783 101.141 250.791 102 252 102V99.5V97C250.791 97 249.783 97.8589 249.551 99H203.449C203.25 98.0204 202.48 97.2488 201.5 97.05V51.95C202.48 51.7512 203.25 50.9796 203.449 50H249.551C249.783 51.1411 250.791 52 252 52V49.5V47C250.791 47 249.783 47.8589 249.551 49H203.449C203.25 48.0204 202.48 47.2488 201.5 47.05V2.4502C202.641 2.21857 203.5 1.20972 203.5 0.000183105L201.5 0H201H200.5L198.5 0.000183105C198.5 1.20972 199.359 2.21857 200.5 2.4502V47.05C199.52 47.2488 198.75 48.0204 198.551 49H153.449C153.25 48.0204 152.48 47.2488 151.5 47.05V2.4502C152.641 2.21857 153.5 1.20972 153.5 0.000183105L151.5 0H151H150.5L148.5 0.000183105C148.5 1.20972 149.359 2.21857 150.5 2.4502V47.05C149.52 47.2488 148.75 48.0204 148.551 49H103.449C103.25 48.0204 102.48 47.2488 101.5 47.05V2.4502C102.641 2.21857 103.5 1.20972 103.5 0.000183105L101.5 0H101H100.5L98.5 0.000183105C98.5 1.20972 99.3594 2.21857 100.5 2.4502V47.05C99.5195 47.2488 98.75 48.0204 98.5508 49H53.4492C53.25 48.0204 52.4805 47.2488 51.5 47.05V2.4502C52.6406 2.21857 53.5 1.20972 53.5 0.000183105L51.5 0H51H50.5L48.5 0.000183105C48.5 1.20972 49.3594 2.21857 50.5 2.4502V47.05C49.5195 47.2488 48.75 48.0204 48.5508 49ZM103.449 50C103.25 50.9796 102.48 51.7512 101.5 51.95V97.05C102.48 97.2488 103.25 98.0204 103.449 99H148.551C148.75 98.0204 149.52 97.2488 150.5 97.05V51.95C149.52 51.7512 148.75 50.9796 148.551 50H103.449ZM100.5 51.95C99.5195 51.7512 98.75 50.9796 98.5508 50H53.4492C53.25 50.9796 52.4805 51.7512 51.5 51.95V97.05C52.4805 97.2488 53.25 98.0204 53.4492 99H98.5508C98.75 98.0204 99.5195 97.2488 100.5 97.05V51.95ZM198.551 249C198.75 248.02 199.52 247.249 200.5 247.05V201.95C199.52 201.751 198.75 200.98 198.551 200H153.449C153.25 200.98 152.48 201.751 151.5 201.95V247.05C152.48 247.249 153.25 248.02 153.449 249H198.551ZM150.5 201.95V247.05C149.52 247.249 148.75 248.02 148.551 249H103.449C103.25 248.02 102.48 247.249 101.5 247.05V201.95C102.48 201.751 103.25 200.98 103.449 200H148.551C148.75 200.98 149.52 201.751 150.5 201.95ZM103.449 199H148.551C148.75 198.02 149.52 197.249 150.5 197.05V151.95C149.52 151.751 148.75 150.98 148.551 150H103.449C103.25 150.98 102.48 151.751 101.5 151.95V197.05C102.48 197.249 103.25 198.02 103.449 199ZM100.5 197.05V151.95C99.5195 151.751 98.75 150.98 98.5508 150H53.4492C53.25 150.98 52.4805 151.751 51.5 151.95V197.05C52.4805 197.249 53.25 198.02 53.4492 199H98.5508C98.75 198.02 99.5195 197.249 100.5 197.05ZM98.5508 200H53.4492C53.25 200.98 52.4805 201.751 51.5 201.95V247.05C52.4805 247.249 53.25 248.02 53.4492 249H98.5508C98.75 248.02 99.5195 247.249 100.5 247.05V201.95C99.5195 201.751 98.75 200.98 98.5508 200ZM3.44922 50C3.25 50.9796 2.48047 51.7512 1.5 51.95V97.05C2.48047 97.2488 3.25 98.0204 3.44922 99H48.5508C48.75 98.0204 49.5195 97.2488 50.5 97.05V51.95C49.5195 51.7512 48.75 50.9796 48.5508 50H3.44922ZM1.5 147.05V101.95C2.48047 101.751 3.25 100.98 3.44922 100H48.5508C48.75 100.98 49.5195 101.751 50.5 101.95V147.05C49.5195 147.249 48.75 148.02 48.5508 149H3.44922C3.25 148.02 2.48047 147.249 1.5 147.05ZM200.5 197.05V151.95C199.52 151.751 198.75 150.98 198.551 150H153.449C153.25 150.98 152.48 151.751 151.5 151.95V197.05C152.48 197.249 153.25 198.02 153.449 199H198.551C198.75 198.02 199.52 197.249 200.5 197.05ZM200.5 51.95C199.52 51.7512 198.75 50.9796 198.551 50H153.449C153.25 50.9796 152.48 51.7512 151.5 51.95V97.05C152.48 97.2488 153.25 98.0204 153.449 99H198.551C198.75 98.0204 199.52 97.2488 200.5 97.05V51.95ZM198.551 100H153.449C153.25 100.98 152.48 101.751 151.5 101.95V147.05C152.48 147.249 153.25 148.02 153.449 149H198.551C198.75 148.02 199.52 147.249 200.5 147.05V101.95C199.898 101.828 199.375 101.489 199.016 101.019C198.789 100.724 198.627 100.378 198.551 100ZM101.5 101.95C102.48 101.751 103.25 100.98 103.449 100H148.551C148.75 100.98 149.52 101.751 150.5 101.95V147.05C149.52 147.249 148.75 148.02 148.551 149H103.449C103.25 148.02 102.48 147.249 101.5 147.05V101.95ZM98.5508 100C98.75 100.98 99.5195 101.751 100.5 101.95V147.05C99.5195 147.249 98.75 148.02 98.5508 149H53.4492C53.25 148.02 52.4805 147.249 51.5 147.05V101.95C52.4805 101.751 53.25 100.98 53.4492 100H98.5508ZM50.5 247.05V201.95C49.5195 201.751 48.75 200.98 48.5508 200H3.44922C3.25 200.98 2.48047 201.751 1.5 201.95V247.05C2.48047 247.249 3.25 248.02 3.44922 249H48.5508C48.75 248.02 49.5195 247.249 50.5 247.05ZM3.44922 199H48.5508C48.75 198.02 49.5195 197.249 50.5 197.05V151.95C49.5195 151.751 48.75 150.98 48.5508 150H3.44922C3.25 150.98 2.48047 151.751 1.5 151.95V197.05C2.48047 197.249 3.25 198.02 3.44922 199ZM251 0H249.5C249.5 1.38074 250.619 2.5 252 2.5V0H251Z" fill="#5C567C"/>
</svg>
