<svg width="211" height="135" viewBox="0 0 211 135" fill="none" xmlns="http://www.w3.org/2000/svg">
<path d="M49.289 30.7324L49.6985 33.2183L52.1844 33.6278L49.6985 34.0373L49.289 36.5232L48.8795 34.0373L46.3936 33.6278L48.8795 33.2183L49.289 30.7324Z" fill="#9ACFFF"/>
<path d="M25.8954 92L26.3049 94.486L28.7909 94.8954L26.3049 95.3049L25.8954 97.7909L25.486 95.3049L23 94.8954L25.486 94.486L25.8954 92Z" fill="#9ACFFF"/>
<path d="M164.407 97.8134L164.817 100.299L167.303 100.709L164.817 101.118L164.407 103.604L163.998 101.118L161.512 100.709L163.998 100.299L164.407 97.8134Z" fill="#9ACFFF"/>
<path opacity="0.6" d="M108.055 67.0022L108.328 68.6595L109.986 68.9325L108.328 69.2055L108.055 70.8628L107.782 69.2055L106.125 68.9325L107.782 68.6595L108.055 67.0022Z" fill="#9ACFFF"/>
<path opacity="0.3" d="M138.93 39L139.203 40.6573L140.861 40.9303L139.203 41.2033L138.93 42.8606L138.657 41.2033L137 40.9303L138.657 40.6573L138.93 39Z" fill="#9ACFFF"/>
<path opacity="0.6" d="M84.3326 111.139L84.6056 112.797L86.2629 113.07L84.6056 113.343L84.3326 115L84.0596 113.343L82.4023 113.07L84.0596 112.797L84.3326 111.139Z" fill="#9ACFFF"/>
<path opacity="0.3" d="M133.93 94.1372L134.203 95.7945L135.861 96.0675L134.203 96.3405L133.93 97.9978L133.657 96.3405L132 96.0675L133.657 95.7945L133.93 94.1372Z" fill="#9ACFFF"/>
<path opacity="0.3" d="M13.9303 9L14.2033 10.6573L15.8606 10.9303L14.2033 11.2033L13.9303 12.8606L13.6573 11.2033L12 10.9303L13.6573 10.6573L13.9303 9Z" fill="#9ACFFF"/>
<path opacity="0.3" d="M61.9303 59L62.2033 60.6573L63.8606 60.9303L62.2033 61.2033L61.9303 62.8606L61.6573 61.2033L60 60.9303L61.6573 60.6573L61.9303 59Z" fill="#9ACFFF"/>
<path opacity="0.6" d="M188.241 39.5313L188.514 41.1886L190.171 41.4616L188.514 41.7346L188.241 43.3919L187.968 41.7346L186.311 41.4616L187.968 41.1886L188.241 39.5313Z" fill="#9ACFFF"/>
<path d="M127.322 18L127.8 20.9003L130.7 21.378L127.8 21.8557L127.322 24.756L126.845 21.8557L123.944 21.378L126.845 20.9003L127.322 18Z" fill="#9ACFFF"/>
</svg>
