<svg width="1488" height="1080" viewBox="0 0 1488 1080" fill="none" xmlns="http://www.w3.org/2000/svg">
<g clip-path="url(#clip0_1_4)">
<rect x="-9" y="351.897" width="318.611" height="319.509" rx="40" fill="#2A2A49" stroke="#474466" stroke-width="5" stroke-dasharray="15 4"/>
<g clip-path="url(#clip1_1_4)">
<rect x="50.1707" y="411.235" width="200.27" height="200.834" rx="100.135" fill="white"/>
<mask id="mask0_1_4" style="mask-type:luminance" maskUnits="userSpaceOnUse" x="50" y="411" width="201" height="202">
<path d="M50.1707 411.235H250.441V612.069H50.1707V411.235Z" fill="white"/>
</mask>
<g mask="url(#mask0_1_4)">
<path d="M143.747 411.286C143.313 411.328 141.944 411.47 140.709 411.562C112.271 414.14 85.6351 429.529 68.7457 453.185C59.419 466.17 53.356 481.221 51.0719 497.059C50.2708 502.582 50.1707 504.205 50.1707 511.686C50.1707 519.168 50.2708 520.799 51.0719 526.314C56.5125 564.029 83.282 595.71 119.573 607.451C126.073 609.551 132.924 610.982 140.709 611.853C143.747 612.187 156.865 612.187 159.902 611.853C173.345 610.355 184.744 607.016 195.976 601.267C197.703 600.388 198.037 600.146 197.803 599.953C192.309 592.687 186.871 585.379 181.489 578.029L165.476 556.33L145.416 526.548C138.741 516.587 132.004 506.668 125.205 496.791C125.13 496.766 125.055 509.996 125.013 526.163C124.955 554.447 124.93 555.585 124.579 556.255C124.237 557.036 123.628 557.669 122.86 558.037C122.234 558.355 121.692 558.414 118.73 558.414H115.342L114.441 557.845C113.883 557.492 113.43 556.995 113.131 556.406L112.713 555.527L112.755 516.163L112.813 476.783L113.423 476.013C113.833 475.532 114.324 475.127 114.875 474.817C115.676 474.423 115.984 474.39 119.381 474.39C123.369 474.39 124.037 474.541 125.072 475.679C125.364 475.997 136.228 492.415 149.229 512.18L188.732 572.196L204.587 596.28L205.397 595.752C213.027 590.665 219.945 584.578 225.966 577.652C238.584 563.169 246.769 545.344 249.539 526.314C250.341 520.791 250.441 519.168 250.441 511.686C250.441 504.205 250.341 502.582 249.539 497.059C244.099 459.352 217.329 427.662 181.039 415.922C174.256 413.759 167.272 412.293 160.194 411.546C158.308 411.345 145.374 411.127 143.755 411.294L143.747 411.286ZM184.744 472.038C185.209 472.273 185.623 472.599 185.963 472.995C186.302 473.391 186.56 473.851 186.721 474.348C186.872 474.85 186.913 485.771 186.872 510.373L186.813 545.669L180.613 536.13L174.388 526.59V500.933C174.388 484.34 174.463 475.018 174.58 474.566C174.719 474.043 174.962 473.554 175.295 473.128C175.628 472.702 176.043 472.349 176.516 472.089C177.325 471.67 177.618 471.637 180.688 471.637C183.584 471.637 184.093 471.687 184.744 472.038Z" fill="black"/>
</g>
</g>
<rect x="-9" y="726" width="318.611" height="319.509" rx="40" fill="#2A2A49" stroke="#474466" stroke-width="5" stroke-dasharray="15 4"/>
<path d="M137.563 808.02C140.863 804.724 145.336 802.873 150 802.873C154.664 802.873 159.137 804.724 162.437 808.02L227.98 873.551C229.615 875.185 230.913 877.126 231.798 879.262C232.683 881.398 233.139 883.688 233.139 886C233.139 888.312 232.683 890.602 231.798 892.738C230.913 894.874 229.615 896.815 227.98 898.449L162.449 963.98C160.815 965.615 158.874 966.913 156.738 967.798C154.602 968.683 152.312 969.139 150 969.139C147.688 969.139 145.398 968.683 143.262 967.798C141.126 966.913 139.185 965.615 137.551 963.98L72.0202 898.449C70.3847 896.815 69.0873 894.874 68.2021 892.738C67.3169 890.602 66.8613 888.312 66.8613 886C66.8613 883.688 67.3169 881.398 68.2021 879.262C69.0873 877.126 70.3847 875.185 72.0202 873.551L118.238 827.333L134.113 843.209C133.049 845.436 132.465 847.863 132.4 850.33C132.335 852.798 132.789 855.252 133.734 857.533C134.679 859.813 136.094 861.87 137.885 863.568C139.677 865.266 141.806 866.569 144.133 867.391V904.597C140.219 905.981 136.92 908.704 134.819 912.285C132.718 915.867 131.951 920.075 132.653 924.167C133.356 928.259 135.482 931.971 138.656 934.647C141.83 937.323 145.848 938.791 150 938.791C154.152 938.791 158.17 937.323 161.344 934.647C164.518 931.971 166.644 928.259 167.347 924.167C168.049 920.075 167.281 915.867 165.181 912.285C163.08 908.704 159.781 905.981 155.867 904.597V867.403C156.453 867.191 157.04 866.957 157.591 866.687L169.325 878.42C167.535 882.167 167.128 886.425 168.174 890.443C169.221 894.461 171.654 897.979 175.044 900.376C178.434 902.773 182.562 903.895 186.699 903.543C190.836 903.19 194.715 901.387 197.651 898.451C200.587 895.515 202.39 891.636 202.743 887.499C203.095 883.362 201.973 879.234 199.576 875.844C197.179 872.454 193.661 870.021 189.643 868.974C185.625 867.928 181.367 868.335 177.62 870.125L165.887 858.391C167.455 855.107 167.967 851.417 167.352 847.83C166.736 844.243 165.024 840.935 162.45 838.361C159.877 835.788 156.569 834.075 152.981 833.46C149.394 832.844 145.704 833.356 142.42 834.925L126.533 819.026L137.563 807.997V808.02Z" fill="#E84D31"/>
<rect x="386.583" y="351.897" width="318.611" height="319.509" rx="40" fill="#2A2A49" stroke="#474466" stroke-width="5" stroke-dasharray="15 4"/>
<g clip-path="url(#clip2_1_4)">
<path d="M618.786 437.577C600.332 411.117 563.887 403.275 537.536 420.094L491.256 449.645C485.005 453.586 479.642 458.79 475.512 464.924C471.382 471.059 468.574 477.99 467.27 485.273C465.062 497.542 467.002 510.198 472.784 521.237C468.822 527.258 466.12 534.02 464.841 541.116C463.523 548.546 463.699 556.166 465.358 563.527C467.018 570.888 470.129 577.843 474.507 583.984C492.964 610.447 529.409 618.286 555.757 601.467L602.036 571.917C608.289 567.977 613.651 562.773 617.782 556.638C621.912 550.503 624.719 543.572 626.023 536.288C628.23 524.02 626.291 511.364 620.513 500.323C624.473 494.303 627.174 487.541 628.452 480.445C629.771 473.015 629.596 465.396 627.936 458.034C626.276 450.673 623.165 443.718 618.786 437.577Z" fill="#FF3E00"/>
<path d="M533.011 586.501C518.088 590.389 502.331 584.537 493.542 571.845C490.908 568.151 489.037 563.967 488.038 559.539C487.039 555.111 486.934 550.527 487.727 546.058C487.996 544.59 488.365 543.143 488.833 541.726L489.705 539.064L492.077 540.809C497.554 544.841 503.679 547.906 510.186 549.873L511.906 550.396L511.748 552.117C511.537 554.564 512.199 557.007 513.615 559.012C514.906 560.879 516.738 562.303 518.863 563.093C520.988 563.884 523.304 564.001 525.498 563.431C526.504 563.161 527.463 562.739 528.342 562.179L574.636 532.623C575.768 531.909 576.74 530.966 577.489 529.854C578.238 528.743 578.748 527.487 578.985 526.167C579.223 524.82 579.19 523.439 578.889 522.104C578.589 520.77 578.026 519.509 577.233 518.395C575.941 516.528 574.108 515.103 571.983 514.312C569.857 513.522 567.54 513.403 565.345 513.973C564.341 514.243 563.383 514.665 562.506 515.224L544.84 526.506C541.935 528.357 538.765 529.751 535.439 530.642C520.518 534.529 504.76 528.677 495.972 515.985C493.338 512.292 491.466 508.108 490.468 503.68C489.469 499.251 489.363 494.668 490.156 490.198C490.941 485.817 492.63 481.648 495.114 477.959C497.599 474.269 500.825 471.139 504.586 468.77L550.876 439.211C553.783 437.358 556.955 435.962 560.283 435.071C575.205 431.184 590.963 437.036 599.75 449.727C602.385 453.421 604.256 457.605 605.255 462.033C606.253 466.461 606.359 471.045 605.566 475.515C605.296 476.982 604.927 478.428 604.46 479.845L603.588 482.509L601.217 480.766C595.74 476.732 589.615 473.665 583.107 471.698L581.386 471.174L581.545 469.454C581.754 467.007 581.093 464.565 579.678 462.559C578.387 460.692 576.555 459.267 574.43 458.477C572.305 457.687 569.989 457.569 567.795 458.14C566.789 458.409 565.83 458.832 564.951 459.392L518.657 488.949C517.525 489.663 516.553 490.605 515.804 491.717C515.056 492.828 514.547 494.084 514.31 495.404C514.071 496.751 514.103 498.132 514.404 499.467C514.704 500.802 515.267 502.063 516.06 503.177C517.352 505.044 519.185 506.469 521.31 507.259C523.436 508.05 525.753 508.168 527.948 507.598C528.954 507.328 529.913 506.906 530.791 506.346L548.454 495.069C551.358 493.215 554.528 491.819 557.854 490.929C572.775 487.042 588.534 492.894 597.321 505.586C599.956 509.28 601.827 513.464 602.826 517.892C603.824 522.32 603.93 526.903 603.137 531.373C602.352 535.754 600.663 539.923 598.178 543.614C595.693 547.304 592.468 550.435 588.707 552.805L542.417 582.361C539.511 584.214 536.339 585.611 533.011 586.501Z" fill="white"/>
</g>
<rect x="386" y="728" width="318.611" height="319.509" rx="40" fill="#2A2A49" stroke="#474466" stroke-width="5" stroke-dasharray="15 4"/>
<g clip-path="url(#clip3_1_4)">
<path d="M602.73 935.56L525.812 958.247C523.462 958.94 521.209 956.914 521.703 954.549L549.182 823.315C549.696 820.86 553.097 820.472 554.17 822.744L605.049 930.486C606.008 932.52 604.913 934.917 602.729 935.56L602.73 935.56ZM615.92 930.207L557.01 805.453C553.127 798.208 543.937 798.471 540.347 804.534L476.456 907.732C474.477 910.95 474.516 914.916 476.569 918.093L507.8 966.34C511.02 970.168 513.997 971.974 519.083 970.474L609.737 943.736C615.777 941.932 618.687 936.113 615.92 930.207Z" fill="#5A67D8"/>
</g>
<rect x="783" y="726" width="318.611" height="319.509" rx="40" fill="#2A2A49" stroke="#474466" stroke-width="5" stroke-dasharray="15 4"/>
<g clip-path="url(#clip4_1_4)">
<path d="M1016 886.026C1015.99 927.426 982.426 960.986 941.026 961L1016 886.026ZM941 811C971.455 811 997.671 829.152 1009.42 855.228L910.228 954.417C905.994 952.509 901.946 950.211 898.137 947.553L959.69 886H941L887.967 939.033C874.395 925.46 866 906.71 866 886C866 844.579 899.579 811 941 811Z" fill="white"/>
</g>
<rect x="1178" y="726" width="318.611" height="319.509" rx="40" fill="#2A2A49" stroke="#474466" stroke-width="5" stroke-dasharray="15 4"/>
<path d="M1315.49 924.664C1315.49 925.211 1314.86 925.648 1314.06 925.648C1313.16 925.73 1312.53 925.293 1312.53 924.664C1312.53 924.117 1313.16 923.68 1313.95 923.68C1314.78 923.598 1315.49 924.035 1315.49 924.664ZM1306.96 923.434C1306.77 923.98 1307.32 924.609 1308.14 924.773C1308.85 925.047 1309.68 924.773 1309.84 924.227C1310 923.68 1309.48 923.051 1308.66 922.805C1307.95 922.613 1307.15 922.887 1306.96 923.434ZM1319.08 922.969C1318.29 923.16 1317.74 923.68 1317.82 924.309C1317.9 924.855 1318.61 925.211 1319.44 925.02C1320.23 924.828 1320.78 924.309 1320.7 923.762C1320.62 923.242 1319.88 922.887 1319.08 922.969ZM1337.12 818.188C1299.09 818.188 1270 846.98 1270 884.906C1270 915.23 1289.14 941.18 1316.48 950.313C1319.99 950.941 1321.22 948.781 1321.22 947.004C1321.22 945.309 1321.14 935.957 1321.14 930.215C1321.14 930.215 1301.94 934.316 1297.91 922.066C1297.91 922.066 1294.79 914.109 1290.29 912.059C1290.29 912.059 1284.01 907.766 1290.73 907.848C1290.73 907.848 1297.56 908.395 1301.31 914.902C1307.32 925.457 1317.38 922.422 1321.3 920.617C1321.93 916.242 1323.71 913.207 1325.69 911.402C1310.36 909.707 1294.9 907.492 1294.9 881.187C1294.9 873.668 1296.98 869.895 1301.37 865.082C1300.65 863.305 1298.32 855.977 1302.08 846.516C1307.81 844.738 1321 853.898 1321 853.898C1326.48 852.367 1332.38 851.574 1338.22 851.574C1344.06 851.574 1349.95 852.367 1355.44 853.898C1355.44 853.898 1368.63 844.711 1374.36 846.516C1378.11 856.004 1375.78 863.305 1375.07 865.082C1379.46 869.922 1382.15 873.695 1382.15 881.187C1382.15 907.574 1366 909.68 1350.67 911.402C1353.19 913.562 1355.33 917.664 1355.33 924.09C1355.33 933.305 1355.25 944.707 1355.25 946.949C1355.25 948.727 1356.51 950.887 1359.99 950.258C1387.41 941.18 1406 915.23 1406 884.906C1406 846.98 1375.15 818.188 1337.12 818.188ZM1296.65 912.496C1296.3 912.77 1296.38 913.398 1296.84 913.918C1297.28 914.355 1297.91 914.547 1298.27 914.191C1298.63 913.918 1298.54 913.289 1298.08 912.77C1297.64 912.332 1297.01 912.141 1296.65 912.496ZM1293.69 910.281C1293.5 910.637 1293.77 911.074 1294.32 911.348C1294.76 911.621 1295.31 911.539 1295.5 911.156C1295.69 910.801 1295.42 910.363 1294.87 910.09C1294.32 909.926 1293.88 910.008 1293.69 910.281ZM1302.57 920.016C1302.14 920.371 1302.3 921.191 1302.93 921.711C1303.56 922.34 1304.36 922.422 1304.71 921.984C1305.07 921.629 1304.9 920.809 1304.36 920.289C1303.75 919.66 1302.93 919.578 1302.57 920.016ZM1299.45 915.996C1299.01 916.27 1299.01 916.98 1299.45 917.609C1299.89 918.238 1300.63 918.512 1300.98 918.238C1301.42 917.883 1301.42 917.172 1300.98 916.543C1300.6 915.914 1299.89 915.641 1299.45 915.996Z" fill="white"/>
<rect x="782.592" y="351" width="318.611" height="319.509" rx="40" fill="#2A2A49" stroke="#474466" stroke-width="5" stroke-dasharray="15 4"/>
<g clip-path="url(#clip5_1_4)">
<path d="M941.451 443.442C911.741 443.442 893.171 458.362 885.744 488.2C896.885 473.281 909.883 467.686 924.739 471.416C933.214 473.544 939.272 479.72 945.978 486.555C956.901 497.692 969.543 510.58 997.157 510.58C1026.87 510.58 1045.44 495.66 1052.86 465.821C1041.72 480.741 1028.72 486.336 1013.87 482.606C1005.39 480.478 999.336 474.302 992.63 467.467C981.707 456.33 969.065 443.442 941.451 443.442ZM885.744 510.58C856.034 510.58 837.464 525.499 830.037 555.338C841.178 540.418 854.176 534.823 869.032 538.554C877.507 540.681 883.565 546.857 890.271 553.693C901.195 564.829 913.837 577.717 941.451 577.717C971.161 577.717 989.73 562.797 997.157 532.959C986.016 547.878 973.018 553.473 958.163 549.743C949.687 547.615 943.629 541.439 936.924 534.604C926 523.468 913.358 510.58 885.744 510.58Z" fill="url(#paint0_linear_1_4)"/>
</g>
<rect x="1178.39" y="351.897" width="318.611" height="319.509" rx="40" fill="#2A2A49" stroke="#474466" stroke-width="5" stroke-dasharray="15 4"/>
<g clip-path="url(#clip6_1_4)">
<path d="M1299.11 610.377C1316.2 610.377 1330.07 596.505 1330.07 579.413V548.449H1299.11C1282.02 548.449 1268.16 562.321 1268.16 579.413C1268.16 596.505 1282.02 610.377 1299.11 610.377Z" fill="#0ACF83"/>
<path d="M1268.16 517.486C1268.16 500.394 1282.02 486.522 1299.11 486.522H1330.07V548.449H1299.11C1282.02 548.449 1268.16 534.578 1268.16 517.486Z" fill="#A259FF"/>
<path d="M1268.16 455.558C1268.16 438.466 1282.03 424.595 1299.11 424.595H1330.07V486.522H1299.11C1282.03 486.522 1268.16 472.65 1268.16 455.558Z" fill="#F24E1E"/>
<path d="M1330.07 424.595H1361.02C1378.11 424.595 1391.97 438.466 1391.97 455.558C1391.97 472.65 1378.11 486.522 1361.02 486.522H1330.07V424.595Z" fill="#FF7262"/>
<path d="M1391.97 517.486C1391.97 534.578 1378.11 548.449 1361.02 548.449C1343.93 548.449 1330.07 534.578 1330.07 517.486C1330.07 500.394 1343.93 486.522 1361.02 486.522C1378.11 486.522 1391.97 500.394 1391.97 517.486Z" fill="#1ABCFE"/>
</g>
</g>
<defs>
<linearGradient id="paint0_linear_1_4" x1="211.023" y1="4740.24" x2="19497.2" y2="15812.4" gradientUnits="userSpaceOnUse">
<stop stop-color="#2298BD"/>
<stop offset="1" stop-color="#0ED7B5"/>
</linearGradient>
<clipPath id="clip0_1_4">
<rect width="1488" height="1080" fill="white"/>
</clipPath>
<clipPath id="clip1_1_4">
<rect x="50.1707" y="411.235" width="200.27" height="200.834" rx="100.135" fill="white"/>
</clipPath>
<clipPath id="clip2_1_4">
<rect width="165.375" height="199.313" fill="white" transform="translate(463.96 411.235)"/>
</clipPath>
<clipPath id="clip3_1_4">
<rect width="142" height="171" fill="white" transform="translate(475 800)"/>
</clipPath>
<clipPath id="clip4_1_4">
<rect width="150" height="150" fill="white" transform="translate(866 811)"/>
</clipPath>
<clipPath id="clip5_1_4">
<rect width="222.849" height="134.625" fill="white" transform="translate(830.026 443.442)"/>
</clipPath>
<clipPath id="clip6_1_4">
<rect width="123.855" height="185.782" fill="white" transform="translate(1268.14 424.595)"/>
</clipPath>
</defs>
</svg>
